<svg width="24" height="24" viewBox="0 0 24 24" fill="none" xmlns="http://www.w3.org/2000/svg"><path d="M16.25 8a4.25 4.25 0 1 1-8.5 0 4.25 4.25 0 0 1 8.5 0z" stroke="#737373" stroke-width="1.5" stroke-linecap="round" stroke-linejoin="round"/><mask id="path-2-inside-1_164_2305" fill="#fff"><path d="M3 19.997c.844-1.804 2.131-3.32 3.72-4.378A9.508 9.508 0 0 1 12 14c1.864 0 3.691.56 5.28 1.619C18.87 16.677 20.156 18.196 21 20"/></mask><path d="M1.641 19.362a1.5 1.5 0 1 0 2.718 1.27l-2.718-1.27zm18 1.273a1.5 1.5 0 0 0 2.718-1.27l-2.718 1.27zM4.36 20.633c.733-1.567 1.843-2.866 3.193-3.766l-1.664-2.496c-1.827 1.217-3.292 2.95-4.247 4.991l2.718 1.27zm3.193-3.766A8.008 8.008 0 0 1 12 15.5v-3c-2.167 0-4.283.652-6.112 1.87l1.664 2.497zM12 15.5c1.56 0 3.1.469 4.448 1.367l1.664-2.496A11.008 11.008 0 0 0 12 12.5v3zm4.448 1.367c1.35.9 2.46 2.2 3.193 3.768l2.718-1.27c-.955-2.041-2.42-3.776-4.247-4.994l-1.664 2.496z" fill="#737373" mask="url(#path-2-inside-1_164_2305)"/><path d="M3.8 20h16.301" stroke="#737373" stroke-width="1.5" stroke-linecap="round" stroke-linejoin="round"/></svg>